<?xml version="1.0" encoding="utf-8"?>
<!-- Generator: Adobe Illustrator 22.1.0, SVG Export Plug-In . SVG Version: 6.00 Build 0)  -->
<svg version="1.1" id="Layer_1" xmlns="http://www.w3.org/2000/svg" xmlns:xlink="http://www.w3.org/1999/xlink" x="0px" y="0px"
	 viewBox="0 0 780.7 478.7" style="enable-background:new 0 0 780.7 478.7;" xml:space="preserve">
<style type="text/css">
	.st0{fill:#66A24A;}
	.st1{font-family:'Helvetica-Bold';}
	.st2{font-size:8px;}
	.st3{font-family:'Helvetica';}
	.st4{fill:#8B8B8B;}
	.st5{opacity:0.23;fill:#C9B2C3;enable-background:new    ;}
	.st6{fill:none;stroke:#9B9D9F;stroke-width:0.25;stroke-dasharray:1,1;}
	.st7{fill:none;stroke:#000000;stroke-width:0.25;}
	.st8{opacity:0.23;fill:#B2BEC9;enable-background:new    ;}
	.st9{fill:none;stroke:#5ABA48;stroke-width:0.25;}
	.st10{fill:none;stroke:#8B8B8B;stroke-width:0.25;}
	.st11{fill:#5ABA48;}
	.st12{fill:#7C7C7D;}
	.st13{font-size:5.0978px;}
	.st14{opacity:0.55;enable-background:new    ;}
	.st15{fill:#E4E5E6;}
	.st16{fill:none;stroke:#474848;stroke-width:0.25;stroke-linecap:round;stroke-dasharray:3,3;}
	.st17{enable-background:new    ;}
	.st18{fill:#5ABA48;stroke:#5ABA48;stroke-width:2;stroke-miterlimit:10;}
	.st19{fill:#8B8B8B;stroke:#8B8B8B;stroke-width:2;stroke-miterlimit:10;}
	.st20{fill:none;stroke:#010101;stroke-width:0.75;stroke-linecap:round;stroke-dasharray:3,3;}
	.st21{fill:#F78C1E;stroke:#F78C1E;stroke-width:2;}
	.st22{clip-path:url(#SVGID_2_);fill:#9C9E9F;stroke:#9C9E9F;stroke-width:2;stroke-miterlimit:10;}
	.st23{fill:#010101;}
	.st24{font-family:'ArialMT';}
	.st25{font-size:7px;}
	.st26{fill:none;stroke:#717375;stroke-width:0.5;}
	.st27{fill:#FFFFFF;}
	.st28{fill:#717375;}
	.st29{font-size:5px;}
	.st30{fill:#F78C1E;}
</style>
<g>
	<text transform="matrix(0.5 0.866 -0.866 0.5 190.8389 372.294)" class="st0 st1 st2" style="text-decoration: underline;">2013_</text>
	<text transform="matrix(0.5 0.866 -0.866 0.5 201.9385 391.5194)" class="st0 st3 st2" style="text-decoration: underline;">Toyo Ito</text>
	<text transform="matrix(0.5 0.866 -0.866 0.5 94.251 371.7935)" class="st0 st1 st2" style="text-decoration: underline;">2017_</text>
	<text transform="matrix(0.5 0.866 -0.866 0.5 105.3506 391.0186)" class="st0 st3 st2" style="text-decoration: underline;">Rafael Aranda</text>
	<text transform="matrix(0.5 0.866 -0.866 0.5 80.4532 371.794)" class="st0 st1 st2" style="text-decoration: underline;">2018_</text>
	<text transform="matrix(0.5 0.866 -0.866 0.5 91.5528 391.0191)" class="st0 st3 st2" style="text-decoration: underline;">Balkrishna Doshi</text>
	<text transform="matrix(0.5 0.866 -0.866 0.5 108.0489 371.7938)" class="st0 st1 st2" style="text-decoration: underline;">2017_</text>
	<text transform="matrix(0.5 0.866 -0.866 0.5 119.1495 391.0191)" class="st0 st3 st2" style="text-decoration: underline;">Carme Pigem</text>
	<text transform="matrix(0.5 0.866 -0.866 0.5 53.001 371.7935)" class="st0 st1 st2" style="text-decoration: underline;">2020_</text>
	<text transform="matrix(0.5 0.866 -0.866 0.5 64.1006 391.0186)" class="st0 st3 st2" style="text-decoration: underline;">Shelley McNamara</text>
	<text transform="matrix(0.5 0.866 -0.866 0.5 39.2032 371.794)" class="st0 st1 st2" style="text-decoration: underline;">2020_</text>
	<text transform="matrix(0.5 0.866 -0.866 0.5 50.3028 391.0191)" class="st0 st3 st2" style="text-decoration: underline;">Yvonne Farrell </text>
	<text transform="matrix(0.5 0.866 -0.866 0.5 66.7989 371.7938)" class="st0 st1 st2" style="text-decoration: underline;">2019_</text>
	<text transform="matrix(0.5 0.866 -0.866 0.5 77.8995 391.0191)" class="st0 st3 st2" style="text-decoration: underline;">Arata Isozaki</text>
	<text transform="matrix(0.5 0.866 -0.866 0.5 121.8477 371.7938)" class="st0 st1 st2" style="text-decoration: underline;">2017_</text>
	<text transform="matrix(0.5 0.866 -0.866 0.5 132.9483 391.0191)" class="st0 st3 st2" style="text-decoration: underline;">Ramon Vilalta</text>
	<text transform="matrix(0.5 0.866 -0.866 0.5 135.6465 371.7943)" class="st0 st1 st2" style="text-decoration: underline;">2016_</text>
	<text transform="matrix(0.5 0.866 -0.866 0.5 146.7461 391.0196)" class="st0 st3 st2" style="text-decoration: underline;">Alejandro Aravena</text>
	<text transform="matrix(0.5 0.866 -0.866 0.5 149.4444 372.295)" class="st4 st1 st2" style="text-decoration: underline;">2015_</text>
	<text transform="matrix(0.5 0.866 -0.866 0.5 160.544 391.5201)" class="st4 st3 st2" style="text-decoration: underline;">Frei Otto</text>
	<text transform="matrix(0.5 0.866 -0.866 0.5 315.0244 371.7935)" class="st4 st1 st2" style="text-decoration: underline;">2004_</text>
	<text transform="matrix(0.5 0.866 -0.866 0.5 326.1241 391.0186)" class="st4 st3 st2" style="text-decoration: underline;">Zaha Hadid</text>
	<text transform="matrix(0.5 0.866 -0.866 0.5 163.2422 371.7935)" class="st0 st1 st2" style="text-decoration: underline;">2014_</text>
	<text transform="matrix(0.5 0.866 -0.866 0.5 174.3418 391.0189)" class="st0 st3 st2" style="text-decoration: underline;">Shigeru Ban</text>
	<text transform="matrix(0.5 0.866 -0.866 0.5 204.6387 371.7935)" class="st0 st1 st2" style="text-decoration: underline;">2012_</text>
	<text transform="matrix(0.5 0.866 -0.866 0.5 215.7383 391.0189)" class="st0 st3 st2" style="text-decoration: underline;">Wang Shu</text>
	<text transform="matrix(0.5 0.866 -0.866 0.5 177.042 371.794)" class="st0 st1 st2" style="text-decoration: underline;">2011_</text>
	<text transform="matrix(0.5 0.866 -0.866 0.5 188.1416 391.0191)" class="st0 st3 st2" style="text-decoration: underline;">Eduardo Souto de Moura</text>
	<text transform="matrix(0.5 0.866 -0.866 0.5 218.4356 371.7933)" class="st0 st1 st2" style="text-decoration: underline;">2010_</text>
	<text transform="matrix(0.5 0.866 -0.866 0.5 229.5352 391.0186)" class="st0 st3 st2" style="text-decoration: underline;">Ryue Nishizawa</text>
	<text transform="matrix(0.5 0.866 -0.866 0.5 232.2354 371.7935)" class="st0 st1 st2" style="text-decoration: underline;">2010_</text>
	<text transform="matrix(0.5 0.866 -0.866 0.5 243.335 391.0186)" class="st0 st3 st2" style="text-decoration: underline;">Kazuyo Sejima</text>
	<text transform="matrix(0.5 0.866 -0.866 0.5 246.0323 371.7943)" class="st0 st1 st2" style="text-decoration: underline;">2009_</text>
	<text transform="matrix(0.5 0.866 -0.866 0.5 257.1328 391.0196)" class="st0 st3 st2" style="text-decoration: underline;">Peter Zumthor</text>
	<text transform="matrix(0.5 0.866 -0.866 0.5 259.8321 371.7938)" class="st0 st1 st2" style="text-decoration: underline;">2008_</text>
	<text transform="matrix(0.5 0.866 -0.866 0.5 270.9317 391.0189)" class="st0 st3 st2" style="text-decoration: underline;">Jean Nouvel</text>
	<text transform="matrix(0.5 0.866 -0.866 0.5 273.6299 371.7945)" class="st0 st1 st2" style="text-decoration: underline;">2007_</text>
	<text transform="matrix(0.5 0.866 -0.866 0.5 284.7295 391.0199)" class="st0 st3 st2" style="text-decoration: underline;">Richard Rogers</text>
	<text transform="matrix(0.5 0.866 -0.866 0.5 287.4268 371.795)" class="st0 st1 st2" style="text-decoration: underline;">2006_</text>
	<text transform="matrix(0.5 0.866 -0.866 0.5 298.5264 391.0201)" class="st0 st3 st2" style="text-decoration: underline;">Mendes da Rocha</text>
	<text transform="matrix(0.5 0.866 -0.866 0.5 301.2256 371.7943)" class="st0 st1 st2" style="text-decoration: underline;">2005_</text>
	<text transform="matrix(0.5 0.866 -0.866 0.5 312.3262 391.0196)" class="st0 st3 st2" style="text-decoration: underline;">Thom Mayne</text>
	<text transform="matrix(0.5 0.866 -0.866 0.5 342.6211 371.7938)" class="st0 st1 st2" style="text-decoration: underline;">2002_</text>
	<text transform="matrix(0.5 0.866 -0.866 0.5 353.7207 391.0191)" class="st0 st3 st2" style="text-decoration: underline;">Glenn Murcutt</text>
	<text transform="matrix(0.5 0.866 -0.866 0.5 356.42 371.794)" class="st0 st1 st2" style="text-decoration: underline;">2001_</text>
	<text transform="matrix(0.5 0.866 -0.866 0.5 367.5196 391.0194)" class="st0 st3 st2" style="text-decoration: underline;">Pierre de Meuron</text>
	<text transform="matrix(0.5 0.866 -0.866 0.5 370.2178 371.7938)" class="st0 st1 st2" style="text-decoration: underline;">2001_</text>
	<text transform="matrix(0.5 0.866 -0.866 0.5 381.3174 391.0191)" class="st0 st3 st2" style="text-decoration: underline;">Jacques Herzog</text>
	<text transform="matrix(0.5 0.866 -0.866 0.5 384.0166 371.7945)" class="st0 st1 st2" style="text-decoration: underline;">2000_</text>
	<text transform="matrix(0.5 0.866 -0.866 0.5 395.1162 391.0201)" class="st0 st3 st2" style="text-decoration: underline;">Rem Koolhaas</text>
	<text transform="matrix(0.5 0.866 -0.866 0.5 397.8135 371.7945)" class="st0 st1 st2" style="text-decoration: underline;">1999_</text>
	<text transform="matrix(0.5 0.866 -0.866 0.5 408.9131 391.0201)" class="st0 st3 st2" style="text-decoration: underline;">Norman Foster</text>
	<text transform="matrix(0.5 0.866 -0.866 0.5 411.6123 371.7938)" class="st0 st1 st2" style="text-decoration: underline;">1998_</text>
	<text transform="matrix(0.5 0.866 -0.866 0.5 422.7129 391.0189)" class="st0 st3 st2" style="text-decoration: underline;">Renzo Piano</text>
	<text transform="matrix(0.5 0.866 -0.866 0.5 425.4102 371.7938)" class="st4 st1 st2" style="text-decoration: underline;">1997_</text>
	<text transform="matrix(0.5 0.866 -0.866 0.5 436.5108 391.0191)" class="st4 st3 st2" style="text-decoration: underline;">Sverre Fehn</text>
	<text transform="matrix(0.5 0.866 -0.866 0.5 439.21 371.7938)" class="st0 st1 st2" style="text-decoration: underline;">1996_</text>
	<text transform="matrix(0.5 0.866 -0.866 0.5 450.3096 391.0189)" class="st0 st3 st2" style="text-decoration: underline;">José Rafael Moneo</text>
	<text transform="matrix(0.5 0.866 -0.866 0.5 466.8057 371.7935)" class="st0 st1 st2" style="text-decoration: underline;">1995_</text>
	<text transform="matrix(0.5 0.866 -0.866 0.5 477.9053 391.0189)" class="st0 st3 st2" style="text-decoration: underline;">Tadao Ando</text>
	<text transform="matrix(0.5 0.866 -0.866 0.5 453.0078 371.7935)" class="st0 st1 st2" style="text-decoration: underline;">1994_</text>
	<text transform="matrix(0.5 0.866 -0.866 0.5 464.1075 391.0189)" class="st0 st3 st2" style="text-decoration: underline;">Christian de Portzamparc</text>
	<text transform="matrix(0.5 0.866 -0.866 0.5 480.6035 371.7945)" class="st0 st1 st2" style="text-decoration: underline;">1993_</text>
	<text transform="matrix(0.5 0.866 -0.866 0.5 491.7041 391.0196)" class="st0 st3 st2" style="text-decoration: underline;">Fumihiko Maki</text>
	<text transform="matrix(0.5 0.866 -0.866 0.5 494.4024 371.7943)" class="st0 st1 st2" style="text-decoration: underline;">1992_</text>
	<text transform="matrix(0.5 0.866 -0.866 0.5 505.502 391.0194)" class="st0 st3 st2" style="text-decoration: underline;">Alvaro Siza </text>
	<text transform="matrix(0.5 0.866 -0.866 0.5 508.2012 371.7935)" class="st4 st1 st2" style="text-decoration: underline;">1991_</text>
	<text transform="matrix(0.5 0.866 -0.866 0.5 519.3018 391.0189)" class="st4 st3 st2" style="text-decoration: underline;">Robert Venturi</text>
	<text transform="matrix(0.5 0.866 -0.866 0.5 521.9981 371.7943)" class="st4 st1 st2" style="text-decoration: underline;">1990_</text>
	<text transform="matrix(0.5 0.866 -0.866 0.5 533.0987 391.0194)" class="st4 st3 st2" style="text-decoration: underline;">Aldo Rossi</text>
	<text transform="matrix(0.5 0.866 -0.866 0.5 535.7969 371.7938)" class="st0 st1 st2" style="text-decoration: underline;">1989_</text>
	<text transform="matrix(0.5 0.866 -0.866 0.5 546.8965 391.0191)" class="st0 st3 st2" style="text-decoration: underline;">Frank Gehry</text>
	<text transform="matrix(0.5 0.866 -0.866 0.5 549.5948 371.7933)" class="st4 st1 st2" style="text-decoration: underline;">1988_</text>
	<text transform="matrix(0.5 0.866 -0.866 0.5 560.6954 391.0184)" class="st4 st3 st2" style="text-decoration: underline;">Gordon Bunshaft</text>
	<text transform="matrix(0.5 0.866 -0.866 0.5 563.3936 371.7933)" class="st4 st1 st2" style="text-decoration: underline;">1988</text>
	<text transform="matrix(0.5 0.866 -0.866 0.5 572.294 387.2081)" class="st4 st3 st2" style="text-decoration: underline;">_Oscar Niemeyer</text>
	<text transform="matrix(0.5 0.866 -0.866 0.5 577.1924 371.7933)" class="st4 st1 st2" style="text-decoration: underline;">1987_</text>
	<text transform="matrix(0.5 0.866 -0.866 0.5 588.2921 391.0186)" class="st4 st3 st2" style="text-decoration: underline;">Kenzo Tange</text>
	<text transform="matrix(0.5 0.866 -0.866 0.5 590.9903 371.7945)" class="st0 st1 st2" style="text-decoration: underline;">1986_</text>
	<text transform="matrix(0.5 0.866 -0.866 0.5 602.0909 391.0199)" class="st0 st3 st2" style="text-decoration: underline;">Gottfried Böhm</text>
	<text transform="matrix(0.5 0.866 -0.866 0.5 604.7881 371.7943)" class="st0 st1 st2" style="text-decoration: underline;">1985_</text>
	<text transform="matrix(0.5 0.866 -0.866 0.5 615.8887 391.0196)" class="st0 st3 st2" style="text-decoration: underline;">Hans Hollein</text>
	<text transform="matrix(0.5 0.866 -0.866 0.5 618.587 371.794)" class="st0 st1 st2" style="text-decoration: underline;">1984_</text>
	<text transform="matrix(0.5 0.866 -0.866 0.5 629.6876 391.0191)" class="st0 st3 st2" style="text-decoration: underline;">Richard Meier</text>
	<text transform="matrix(0.5 0.866 -0.866 0.5 632.3858 371.7938)" class="st4 st1 st2" style="text-decoration: underline;">1983_</text>
	<text transform="matrix(0.5 0.866 -0.866 0.5 643.4854 391.0191)" class="st4 st3 st2" style="text-decoration: underline;">Ieoh Ming Pei</text>
	<text transform="matrix(0.5 0.866 -0.866 0.5 646.1846 371.7945)" class="st4 st1 st2" style="text-decoration: underline;">1982_</text>
	<text transform="matrix(0.5 0.866 -0.866 0.5 657.2842 391.0199)" class="st4 st3 st2" style="text-decoration: underline;">Kevin Roche</text>
	<text transform="matrix(0.5 0.866 -0.866 0.5 659.9825 371.7945)" class="st4 st1 st2" style="text-decoration: underline;">1981_</text>
	<text transform="matrix(0.5 0.866 -0.866 0.5 671.0821 391.0196)" class="st4 st3 st2" style="text-decoration: underline;">James Stirling</text>
	<text transform="matrix(0.5 0.866 -0.866 0.5 673.7803 371.795)" class="st4 st1 st2" style="text-decoration: underline;">1980_</text>
	<text transform="matrix(0.5 0.866 -0.866 0.5 684.8809 391.0201)" class="st4 st3 st2" style="text-decoration: underline;">Luis Barragán</text>
	<text transform="matrix(0.5 0.866 -0.866 0.5 687.5782 371.7935)" class="st4 st1 st2" style="text-decoration: underline;">1979_</text>
	<text transform="matrix(0.5 0.866 -0.866 0.5 698.6788 391.0189)" class="st4 st3 st2" style="text-decoration: underline;">Philip Johnson</text>
	<text transform="matrix(0.5 0.866 -0.866 0.5 328.8233 371.795)" class="st4 st1 st2" style="text-decoration: underline;">2003_</text>
	<text transform="matrix(0.5 0.866 -0.866 0.5 339.9239 391.0201)" class="st4 st3 st2" style="text-decoration: underline;">Jørn Utzon</text>
</g>
<rect x="37.5" y="331.6" class="st5" width="687.5" height="6"/>
<g>
	<line class="st6" x1="25.5" y1="343.8" x2="699.5" y2="343.8"/>
	<line class="st6" x1="25.5" y1="328.5" x2="699.5" y2="328.5"/>
	<line class="st6" x1="25.5" y1="313.2" x2="699.5" y2="313.2"/>
	<line class="st6" x1="25.5" y1="297.9" x2="699.5" y2="297.9"/>
	<line class="st6" x1="25.5" y1="297.9" x2="699.5" y2="297.9"/>
	<line class="st6" x1="25.5" y1="282.6" x2="699.5" y2="282.6"/>
	<line class="st6" x1="25.5" y1="359.1" x2="699.5" y2="359.1"/>
	<line class="st6" x1="25.5" y1="313.2" x2="699.5" y2="313.2"/>
	<line class="st6" x1="25.5" y1="297.9" x2="699.5" y2="297.9"/>
	<line class="st6" x1="25.5" y1="282.6" x2="699.5" y2="282.6"/>
	<line class="st6" x1="25.5" y1="267.3" x2="699.5" y2="267.3"/>
	<line class="st6" x1="25.5" y1="252" x2="699.5" y2="252"/>
	<line class="st6" x1="25.5" y1="236.7" x2="699.5" y2="236.7"/>
	<line class="st6" x1="25.5" y1="221.4" x2="699.5" y2="221.4"/>
	<line class="st6" x1="25.5" y1="206.1" x2="699.5" y2="206.1"/>
	<line class="st6" x1="25.5" y1="190.8" x2="699.5" y2="190.8"/>
	<line class="st7" x1="25.5" y1="177" x2="699.5" y2="177"/>
</g>
<rect x="37.4" y="290.3" class="st8" width="687.5" height="9.1"/>
<g>
	<line class="st9" x1="93.8" y1="50.3" x2="93.8" y2="371.3"/>
	<line class="st9" x1="107.6" y1="50.3" x2="107.6" y2="371.3"/>
	<line class="st9" x1="80.1" y1="50.3" x2="80.1" y2="371.3"/>
	<line class="st9" x1="66.3" y1="50.3" x2="66.3" y2="371.3"/>
	<line class="st9" x1="52.4" y1="50.3" x2="52.4" y2="371.4"/>
	<line class="st9" x1="38.5" y1="50.3" x2="38.5" y2="371.4"/>
	<line class="st9" x1="121.4" y1="50.3" x2="121.4" y2="371.3"/>
	<line class="st9" x1="135.2" y1="50.3" x2="135.2" y2="371.3"/>
	<line class="st10" x1="149" y1="50.3" x2="149" y2="371.3"/>
	<line class="st9" x1="162.8" y1="50.3" x2="162.8" y2="371.3"/>
	<line class="st9" x1="176.6" y1="50.3" x2="176.6" y2="371.3"/>
	<line class="st9" x1="190.4" y1="50.3" x2="190.4" y2="371.3"/>
	<line class="st9" x1="204.2" y1="50.3" x2="204.2" y2="371.3"/>
	<line class="st9" x1="218" y1="50.3" x2="218" y2="371.3"/>
	<line class="st9" x1="231.8" y1="50.3" x2="231.8" y2="371.3"/>
	<line class="st9" x1="245.6" y1="50.3" x2="245.6" y2="371.3"/>
	<line class="st9" x1="259.4" y1="50.3" x2="259.4" y2="371.3"/>
	<line class="st9" x1="273.2" y1="50.3" x2="273.2" y2="371.3"/>
	<line class="st9" x1="287" y1="50.3" x2="287" y2="371.3"/>
	<line class="st9" x1="300.8" y1="50.3" x2="300.8" y2="371.3"/>
	<line class="st10" x1="314.5" y1="50.3" x2="314.5" y2="371.3"/>
	<line class="st10" x1="328.3" y1="50.3" x2="328.3" y2="371.3"/>
	<line class="st9" x1="342.1" y1="50.3" x2="342.1" y2="371.3"/>
	<line class="st9" x1="355.9" y1="50.3" x2="355.9" y2="371.3"/>
	<line class="st9" x1="369.7" y1="50.3" x2="369.7" y2="371.3"/>
	<line class="st9" x1="383.5" y1="50.3" x2="383.5" y2="371.3"/>
	<line class="st9" x1="397.3" y1="50.3" x2="397.3" y2="371.3"/>
	<line class="st9" x1="411.1" y1="50.3" x2="411.1" y2="371.3"/>
	<line class="st10" x1="424.9" y1="50.3" x2="424.9" y2="371.3"/>
	<line class="st9" x1="438.7" y1="50.3" x2="438.7" y2="371.3"/>
	<line class="st9" x1="452.5" y1="50.3" x2="452.5" y2="371.3"/>
	<line class="st9" x1="466.3" y1="50.3" x2="466.3" y2="371.3"/>
	<line class="st9" x1="480.1" y1="50.3" x2="480.1" y2="371.3"/>
	<line class="st9" x1="493.9" y1="50.3" x2="493.9" y2="371.3"/>
	<line class="st10" x1="507.7" y1="50.3" x2="507.7" y2="371.3"/>
	<line class="st10" x1="521.5" y1="50.3" x2="521.5" y2="371.3"/>
	<line class="st9" x1="535.3" y1="50.3" x2="535.3" y2="371.3"/>
	<line class="st10" x1="549.1" y1="51.3" x2="549.1" y2="371.3"/>
	<line class="st10" x1="562.8" y1="50.3" x2="562.8" y2="371.3"/>
	<line class="st10" x1="576.6" y1="50.3" x2="576.6" y2="371.3"/>
	<line class="st9" x1="590.4" y1="50.3" x2="590.4" y2="371.3"/>
	<line class="st10" x1="604.2" y1="50.3" x2="604.2" y2="371.3"/>
	<line class="st9" x1="618" y1="50.3" x2="618" y2="371.3"/>
	<line class="st10" x1="631.8" y1="50.3" x2="631.8" y2="371.3"/>
	<line class="st10" x1="645.6" y1="50.3" x2="645.6" y2="371.3"/>
	<line class="st10" x1="659.4" y1="50.3" x2="659.4" y2="371.3"/>
	<line class="st10" x1="673.2" y1="50.3" x2="673.2" y2="371.3"/>
	<line class="st10" x1="687" y1="50.3" x2="687" y2="371.3"/>
</g>
<g>
	<path id="point-0-0_12_" class="st11" d="M90.7,177h5.8v90.3h-5.8V177z"/>
	<path id="point-0-0_11_" class="st11" d="M76.9,177h5.8v140.8h-5.8V177z"/>
	<path id="point-0-0_9_" class="st11" d="M35.4,177.1h5.8v103.6h-5.8V177.1z"/>
	<path id="point-0-0_10_" class="st11" d="M49.5,177.1h5.8v101.6h-5.8V177.1z"/>
	<path id="point-0-0_13_" class="st11" d="M63.3,177.1h5.8V311h-5.8V177.1z"/>
	<path id="point-0-1_8_" class="st11" d="M104.5,177h5.8v88.8h-5.8V177z"/>
	<path id="point-0-2_8_" class="st11" d="M118.3,177h5.8v91.8h-5.8V177z"/>
	<path id="point-0-3_8_" class="st11" d="M132.1,177h5.8v81.1h-5.8V177z"/>
	<path id="point-0-4_30_" class="st4" d="M145.9,182.9h5.8v138h-5.8V182.9z"/>
	<path id="point-0-5_6_" class="st11" d="M159.7,177h5.8v96.4h-5.8V177z"/>
	<path id="point-0-6_10_" class="st11" d="M173.5,177h5.8v120.9h-5.8V177z"/>
	<path id="point-0-7_8_" class="st11" d="M187.3,177h5.8v87.3h-5.8V177z"/>
	<path id="point-0-8_8_" class="st11" d="M201.1,177h5.8v104.1h-5.8V177z"/>
	<path id="point-0-9_8_" class="st11" d="M214.9,177h5.8v82.7h-5.8V177z"/>
	<path id="point-0-10_8_" class="st11" d="M228.7,177h5.8v98h-5.8V177z"/>
	<path id="point-0-11_8_" class="st11" d="M242.5,177h5.8v117.9h-5.8V177z"/>
	<path id="point-0-12_8_" class="st11" d="M256.3,177h5.8v114.8h-5.8V177z"/>
	<path id="point-0-13_8_" class="st11" d="M270.1,177h5.8v133.2h-5.8V177z"/>
	<path id="point-0-14_8_" class="st11" d="M283.9,177h5.8v140.8h-5.8V177z"/>
	<path id="point-0-15_8_" class="st11" d="M297.7,177h5.8v116.3h-5.8V177z"/>
	<path id="point-0-16_8_" class="st4" d="M311.5,183.5h5.8v99.2h-5.8V183.5z"/>
	<path id="point-0-17_8_" class="st4" d="M325.3,192.3h5.8v139.3h-5.8V192.3z"/>
	<path id="point-0-18_8_" class="st11" d="M339.1,177h5.8v128.6h-5.8V177z"/>
	<path id="point-0-19_8_" class="st11" d="M352.9,177h5.8v107.2h-5.8V177z"/>
	<path id="point-0-20_8_" class="st11" d="M366.7,177h5.8v107.2h-5.8V177z"/>
	<path id="point-0-21_8_" class="st11" d="M380.5,177h5.8v116.3h-5.8V177z"/>
	<path id="point-0-22_8_" class="st11" d="M394.3,177h5.8v130.1h-5.8V177z"/>
	<path id="point-0-23_8_" class="st11" d="M408.1,177h5.8v127.1h-5.8V177z"/>
	<path id="point-0-24_8_" class="st4" d="M421.9,190.8h5.8v131.6h-5.8V190.8z"/>
	<path id="point-0-25_8_" class="st11" d="M435.7,177h5.8v127.1h-5.8V177z"/>
	<path id="point-0-26_8_" class="st11" d="M449.5,177h5.8v120.9h-5.8V177z"/>
	<path id="point-0-27_8_" class="st11" d="M463.3,177h5.8v116.3h-5.8V177z"/>
	<path id="point-0-28_8_" class="st11" d="M477.1,177h5.8v140.8h-5.8V177z"/>
	<path id="point-0-29_8_" class="st11" d="M490.9,177h5.8v133.2h-5.8V177z"/>
	<path id="point-0-30_8_" class="st4" d="M504.7,180h5.8v140.9h-5.8V180z"/>
	<path id="point-0-31_8_" class="st4" d="M518.5,209.1h5.8v102.6h-5.8V209.1z"/>
	<path id="point-0-32_8_" class="st11" d="M532.3,177h5.8v139.3h-5.8V177z"/>
	<path id="point-0-33_8_" class="st4" d="M546.1,219.9h5.8v125.5h-5.8V219.9z"/>
	<path id="point-0-34_8_" class="st4" d="M559.9,186.2h5.8v162.3h-5.8V186.2z"/>
	<path id="point-0-35_8_" class="st4" d="M573.7,196.9h5.8v142.4h-5.8V196.9z"/>
	<path id="point-0-36_8_" class="st11" d="M587.5,177h5.8v153.1h-5.8V177z"/>
	<path id="point-0-37_8_" class="st4" d="M601.3,185.1h5.8v123.5h-5.8V185.1z"/>
	<path id="point-0-38_8_" class="st11" d="M615.1,177h5.8v131.6h-5.8V177z"/>
	<path id="point-0-39_8_" class="st4" d="M628.9,178.5h5.8v156.2h-5.8V178.5z"/>
	<path id="point-0-40_8_" class="st4" d="M642.7,177h5.8v150h-5.8V177z"/>
	<path id="point-0-41_8_" class="st4" d="M656.5,216.8h5.8v102.6h-5.8V216.8z"/>
	<path id="point-0-42_8_" class="st4" d="M670.3,223.7h5.8v132.4h-5.8V223.7z"/>
	<path id="point-0-43_8_" class="st4" d="M684.1,197.8h5.8V350h-5.8V197.8z"/>
</g>
<g>
	<g>
		<line class="st6" x1="25" y1="135.7" x2="700.1" y2="135.7"/>
		<line class="st6" x1="25" y1="120.4" x2="700.1" y2="120.4"/>
		<line class="st6" x1="25" y1="151" x2="700.1" y2="151"/>
		<line class="st6" x1="25" y1="105.1" x2="700.1" y2="105.1"/>
		<line class="st6" x1="25" y1="89.8" x2="700.1" y2="89.8"/>
		<line class="st6" x1="25" y1="74.5" x2="700.1" y2="74.5"/>
		<line class="st6" x1="25" y1="59.2" x2="700.1" y2="59.2"/>
	</g>
	<g>
		<g>
			<g>
				<g>
					<text transform="matrix(1 0 0 1 15.3334 61.0417)" class="st12 st3 st13">105</text>
				</g>
				<g>
					<text transform="matrix(1 0 0 1 18.3334 75.9166)" class="st12 st3 st13">95</text>
				</g>
				<g>
					<text transform="matrix(1 0 0 1 18.3334 91.4166)" class="st12 st3 st13">85</text>
				</g>
				<g>
					<text transform="matrix(1 0 0 1 18.3334 106.5416)" class="st12 st3 st13">75</text>
				</g>
				<g>
					<text transform="matrix(1 0 0 1 18.3334 121.7916)" class="st12 st3 st13">65</text>
				</g>
				<g>
					<text transform="matrix(1 0 0 1 18.3334 137.2916)" class="st12 st3 st13">55</text>
				</g>
				<g>
					<text transform="matrix(1 0 0 1 18.3334 152.4166)" class="st12 st3 st13">45</text>
				</g>
			</g>
		</g>
		<g>
			<g>
				<g>
					<text transform="matrix(1 0 0 1 700.9584 61.2917)" class="st12 st3 st13">105</text>
				</g>
				<g>
					<text transform="matrix(1 0 0 1 700.9584 76.1666)" class="st12 st3 st13">95</text>
				</g>
				<g>
					<text transform="matrix(1 0 0 1 700.9584 91.6666)" class="st12 st3 st13">85</text>
				</g>
				<g>
					<text transform="matrix(1 0 0 1 700.9584 106.7916)" class="st12 st3 st13">75</text>
				</g>
				<g>
					<text transform="matrix(1 0 0 1 700.9584 122.0416)" class="st12 st3 st13">65</text>
				</g>
				<g>
					<text transform="matrix(1 0 0 1 700.9584 137.5416)" class="st12 st3 st13">55</text>
				</g>
				<g>
					<text transform="matrix(1 0 0 1 700.9584 152.6666)" class="st12 st3 st13">45</text>
				</g>
			</g>
		</g>
	</g>
	<g class="st14">
		<path class="st15" d="M81.5,76.8c7,23.9,9.3,49.6,12.2,51.4c4,2.5,9.2,1.5,13.8,1.5s9.2-3.1,13.8-3.1s9.2,10.7,13.8,10.7
			s9.2-58.1,13.8-58.1s9.2,42.8,13.8,42.8s9.2-24.5,13.8-24.5s9.2,33.6,13.8,33.6s9.2-16.8,13.8-16.8s9.2,21.4,13.8,21.4
			s9.2-9.4,13.8-15.3s9.2-19.9,13.8-19.9s9.2,3.1,13.8,3.1c4.6,0,9.2-14,13.8-18.4s9.2-7.6,13.8-7.6s9.2,18.1,13.8,24.5
			s9.2,13.8,13.8,13.8c4.6,0,9.2-36.7,13.8-36.7s9.2,5.4,13.8,10.7c4.4,5.4,9,21.4,13.6,21.4s9.2,0,13.8,0c4.6,0,9.2-5.4,13.8-9.2
			c4.6-3.8,9.2-13.8,13.8-13.8c4.6,0,9.2,3.1,13.8,3.1s9.2-4.6,13.8-4.6c4.6,0,9.2,2.8,13.8,4.6s9.2,4.3,13.8,6.1
			c4.6,1.8,9.2,4.6,13.8,4.6s9.2-24.5,13.8-24.5c4.6,0,9.2,7.6,13.8,7.6s9.2-10.7,13.8-10.7s9.2,41.3,13.8,41.3s9.2-36.7,13.8-36.7
			s9.2,13.8,13.8,13.8s9-36.6,13.6-36.6s9.2,19.9,13.8,19.9s9.2-10.7,13.8-10.7s9.2,21.4,13.8,21.4s9.2,0,13.8,0s9.2-26,13.8-26
			s9.2,2.5,13.8,7.6s9.2,47.4,13.8,47.4s9.2-22.2,13.8-30.6s9.2-14.1,13.8-19.9l-0.3,41.9c-4.6-3.8-9.2-7.6-13.8-7.6
			s-9.2,35-13.8,35s-9.2-4.8-13.8-7.6c-4.6-2.8-9.2-9.1-13.8-9.1s-9.2,24.4-13.8,24.4s-9.2-0.5-13.8-1.5s-9.2-17-13.8-22.8
			s-9.2-8.4-13.8-12.2c-4.6-3.8-9.2-10.7-13.8-10.7s-9.2,1-13.8,3s-9.2,27.9-13.8,28.9c-4.6,1-9.2,1.5-13.8,1.5s-9.2-10.7-13.8-10.7
			s-9.2,10.7-13.8,10.7c-4.6,0-9.2-9.1-13.8-9.1s-9.2,22.8-13.8,22.8c-4.6,0-9.2-3.8-13.8-6.1c-4.6-2.3-9.2-2.8-13.8-7.6
			c-4.3-4.8-8.9-21.3-13.5-21.3s-9.2,18.3-13.8,18.3s-9.2-4.6-13.8-4.6c-4.6,0-9.2,8.9-13.8,12.2c-4.6,3.3-9.2,7.6-13.8,7.6
			c-4.6,0-9.2,0-13.8,0c-4.6,0-9.2-14.2-13.8-22.8c-4.6-8.6-9.2-28.9-13.8-28.9c-4.6,0-9.2,47.2-13.8,47.2c-4.6,0-9.2-4.6-13.8-10.7
			c-4.6-6.1-9.2-25.9-13.8-25.9s-9.2,2.3-13.8,6.1c-4.6,3.8-9.2,16.7-13.8,16.7c-4.6,0-9.2-4.6-13.8-4.6s-9.2,12.7-13.8,18.3
			s-9.2,15.2-13.8,15.2s-9.2-22.8-13.8-22.8s-9.2,15.2-13.8,15.2s-9.2-35-13.8-35s-9.2,22.8-13.8,22.8s-9.2-50.2-13.8-50.2
			s-9.2,62.4-13.8,62.4s-9.2-12.2-13.8-12.2c-4.6,0-9.2,3-13.8,3s-9.2-0.5-13.8-1.5c-4.6-1-7.6-27.9-12.2-54L79.5,76L81.5,76.8z"/>
		<polygon class="st15" points="79,76.5 76.8,77.4 72.8,81.2 67.9,85.5 63.9,88.9 60.4,96.2 57.1,107.2 54.3,113.9 59.4,105.1 
			66,91.2 74.8,83.2 78.6,78 		"/>
	</g>
	<g>
		<g>
			<path class="st16" d="M80,75.7c4.7-3.2,9.2,51,13.8,52s9.2,1.5,13.8,1.5s9.2-3.1,13.8-3.1s9.2,10.7,13.8,10.7s9.2-58.1,13.8-58.1
				s9.2,42.8,13.8,42.8S172,97,176.6,97s9.2,33.6,13.8,33.6s9.2-16.8,13.8-16.8s9.2,21.4,13.8,21.4s9.2-9.4,13.8-15.3
				S241,100,245.6,100s9.2,3.1,13.8,3.1c4.6,0,9.2-14,13.8-18.4s9.2-7.6,13.8-7.6s9.2,18.1,13.8,24.5s9.2,13.8,13.8,13.8
				c4.6,0,9.2-36.7,13.8-36.7s9.2,5.4,13.8,10.7c4.6,5.4,9.2,21.4,13.8,21.4s9.2,0,13.8,0c4.6,0,9.2-5.4,13.8-9.2
				c4.6-3.8,9.2-13.8,13.8-13.8c4.6,0,9.2,3.1,13.8,3.1s9.2-4.6,13.8-4.6c4.6,0,9.2,2.8,13.8,4.6s9.2,4.3,13.8,6.1
				c4.6,1.8,9.2,4.6,13.8,4.6s9.2-24.5,13.8-24.5c4.6,0,9.2,7.6,13.8,7.6S503.2,74,507.8,74s9.2,41.3,13.8,41.3s9.2-36.7,13.8-36.7
				s9.2,13.8,13.8,13.8s9.2-36.7,13.8-36.7s9.2,19.9,13.8,19.9s9.2-10.7,13.8-10.7s9.2,21.4,13.8,21.4s9.2,0,13.8,0s9.2-26,13.8-26
				s9.2,2.5,13.8,7.6s9.2,47.4,13.8,47.4s9.2-22.2,13.8-30.6s9.2-14.1,13.8-19.9"/>
			<path class="st16" d="M79.6,75.6c0,0-2.8,1.2-5.8,4.4s-7.4,6.4-7.8,6.5s-4.9,6.1-6.5,13s-5.8,16.1-6.8,16.6s-8.1,0.8-14.5-1.6"/>
		</g>
		<g id="data-points_4_" class="st17">
			<g transform="translate(45,10)">
				<path id="point-0-0_8_" class="st18" d="M33.7,66.3c0-0.7,0.6-1.2,1.2-1.2s1.2,0.6,1.2,1.2c0,0.7-0.6,1.2-1.2,1.2
					S33.7,67,33.7,66.3z"/>
				<path id="point-0-0_17_" class="st18" d="M20.1,76.2c0-0.7,0.6-1.2,1.2-1.2s1.2,0.6,1.2,1.2s-0.6,1.2-1.2,1.2
					S20.1,76.9,20.1,76.2z"/>
				<path id="point-0-1_6_" class="st18" d="M47.5,117.4c0-0.7,0.6-1.2,1.2-1.2s1.2,0.6,1.2,1.2c0,0.7-0.6,1.2-1.2,1.2
					S47.5,118,47.5,117.4L47.5,117.4z"/>
				<path id="point-0-2_6_" class="st18" d="M61.6,119.2c0-0.7,0.6-1.2,1.2-1.2s1.2,0.6,1.2,1.2s-0.6,1.2-1.2,1.2
					S61.6,119.9,61.6,119.2z"/>
				<path id="point-0-3_6_" class="st18" d="M74.9,116.1c0-0.7,0.6-1.2,1.2-1.2c0.7,0,1.2,0.6,1.2,1.2c0,0.7-0.6,1.2-1.2,1.2
					C75.5,117.3,74.9,116.8,74.9,116.1L74.9,116.1z"/>
				<path id="point-0-4_17_" class="st18" d="M88.7,126.5c0-0.7,0.6-1.2,1.2-1.2c0.7,0,1.2,0.6,1.2,1.2c0,0.7-0.6,1.2-1.2,1.2
					C89.3,127.8,88.7,127.2,88.7,126.5z"/>
				<path id="point-0-6_8_" class="st18" d="M116.8,111.4c0-0.7,0.6-1.2,1.2-1.2s1.2,0.6,1.2,1.2s-0.6,1.2-1.2,1.2
					S116.8,112.1,116.8,111.4z"/>
				<path id="point-0-7_6_" class="st18" d="M130.5,87.2c0-0.7,0.6-1.2,1.2-1.2s1.2,0.6,1.2,1.2c0,0.7-0.6,1.2-1.2,1.2
					S130.5,87.9,130.5,87.2z"/>
				<path id="point-0-8_6_" class="st18" d="M144.3,120.4c0-0.7,0.6-1.2,1.2-1.2s1.2,0.6,1.2,1.2s-0.6,1.2-1.2,1.2
					S144.3,121.1,144.3,120.4z"/>
				<path id="point-0-9_6_" class="st18" d="M158.1,104c0-0.7,0.6-1.2,1.2-1.2c0.7,0,1.2,0.6,1.2,1.2c0,0.7-0.6,1.2-1.2,1.2
					S158.1,104.6,158.1,104z"/>
				<path id="point-0-10_6_" class="st18" d="M171.9,125.5c0-0.7,0.6-1.2,1.2-1.2c0.7,0,1.2,0.6,1.2,1.2c0,0.7-0.6,1.2-1.2,1.2
					C172.4,126.7,171.9,126.1,171.9,125.5z"/>
				<path id="point-0-11_6_" class="st18" d="M185.7,110.2c0-0.7,0.6-1.2,1.2-1.2c0.7,0,1.2,0.6,1.2,1.2s-0.6,1.2-1.2,1.2
					C186.2,111.4,185.7,110.8,185.7,110.2z"/>
				<path id="point-0-12_6_" class="st18" d="M199.5,90.4c0-0.7,0.6-1.2,1.2-1.2c0.7,0,1.2,0.6,1.2,1.2c0,0.7-0.6,1.2-1.2,1.2
					C200,91.6,199.5,91.1,199.5,90.4z"/>
				<path id="point-0-13_6_" class="st18" d="M213.3,92.9c0-0.7,0.6-1.2,1.2-1.2c0.7,0,1.2,0.6,1.2,1.2c0,0.7-0.6,1.2-1.2,1.2
					C213.8,94.1,213.3,93.5,213.3,92.9z"/>
				<path id="point-0-14_6_" class="st18" d="M227,74.5c0-0.7,0.6-1.2,1.2-1.2s1.2,0.6,1.2,1.2c0,0.7-0.6,1.2-1.2,1.2
					S227,75.2,227,74.5z"/>
				<path id="point-0-15_6_" class="st18" d="M240.8,66.8c0-0.7,0.6-1.2,1.2-1.2s1.2,0.6,1.2,1.2c0,0.7-0.6,1.2-1.2,1.2
					S240.8,67.5,240.8,66.8z"/>
				<path id="point-0-16_6_" class="st18" d="M254.6,91.7c0-0.7,0.6-1.2,1.2-1.2s1.2,0.6,1.2,1.2c0,0.7-0.6,1.2-1.2,1.2
					C255.2,92.9,254.6,92.3,254.6,91.7z"/>
				<path id="point-0-17_6_" class="st19" d="M268.4,105.7c0-0.7,0.6-1.2,1.2-1.2s1.2,0.6,1.2,1.2c0,0.7-0.6,1.2-1.2,1.2
					S268.4,106.4,268.4,105.7z"/>
				<path id="point-0-18_6_" class="st19" d="M282.2,68.8c0-0.7,0.6-1.2,1.2-1.2s1.2,0.6,1.2,1.2c0,0.7-0.6,1.2-1.2,1.2
					S282.2,69.4,282.2,68.8z"/>
				<path id="point-0-19_6_" class="st18" d="M296,79.5c0-0.7,0.6-1.2,1.2-1.2c0.7,0,1.2,0.6,1.2,1.2s-0.6,1.2-1.2,1.2
					C296.5,80.8,296,80.2,296,79.5z"/>
				<path id="point-0-20_6_" class="st18" d="M309.8,100.5c0-0.7,0.6-1.2,1.2-1.2s1.2,0.6,1.2,1.2c0,0.7-0.6,1.2-1.2,1.2
					S309.8,101.2,309.8,100.5z"/>
				<path id="point-0-21_6_" class="st18" d="M323.6,100.8c0-0.7,0.6-1.2,1.2-1.2c0.7,0,1.2,0.6,1.2,1.2c0,0.7-0.6,1.2-1.2,1.2
					C324.1,102.1,323.6,101.5,323.6,100.8z"/>
				<path id="point-0-22_6_" class="st18" d="M337.3,91.7c0-0.7,0.6-1.2,1.2-1.2s1.2,0.6,1.2,1.2c0,0.7-0.6,1.2-1.2,1.2
					S337.3,92.3,337.3,91.7z"/>
				<path id="point-0-23_6_" class="st18" d="M351.1,77.6c0-0.7,0.6-1.2,1.2-1.2s1.2,0.6,1.2,1.2s-0.6,1.2-1.2,1.2
					S351.1,78.2,351.1,77.6L351.1,77.6z"/>
				<path id="point-0-24_6_" class="st18" d="M364.9,80.6c0-0.7,0.6-1.2,1.2-1.2s1.2,0.6,1.2,1.2c0,0.7-0.6,1.2-1.2,1.2
					S364.9,81.3,364.9,80.6z"/>
				<path id="point-0-25_6_" class="st19" d="M378.7,76c0-0.7,0.6-1.2,1.2-1.2c0.7,0,1.2,0.6,1.2,1.2l0,0c0,0.7-0.6,1.2-1.2,1.2
					C379.3,77.3,378.7,76.7,378.7,76z"/>
				<path id="point-0-26_6_" class="st18" d="M392.5,80.6c0-0.7,0.6-1.2,1.2-1.2s1.2,0.6,1.2,1.2c0,0.7-0.6,1.2-1.2,1.2
					S392.5,81.3,392.5,80.6z"/>
				<path id="point-0-27_6_" class="st18" d="M406.3,86.7c0-0.7,0.6-1.2,1.2-1.2c0.7,0,1.2,0.6,1.2,1.2c0,0.7-0.6,1.2-1.2,1.2
					C406.8,88,406.3,87.4,406.3,86.7z"/>
				<path id="point-0-28_6_" class="st18" d="M420.1,91.7c0-0.7,0.6-1.2,1.2-1.2s1.2,0.6,1.2,1.2c0,0.7-0.6,1.2-1.2,1.2
					S420.1,92.3,420.1,91.7z"/>
				<path id="point-0-29_6_" class="st18" d="M433.8,66.8c0-0.7,0.6-1.2,1.2-1.2c0.7,0,1.2,0.6,1.2,1.2c0,0.7-0.6,1.2-1.2,1.2
					C434.4,68.1,433.8,67.5,433.8,66.8z"/>
				<path id="point-0-30_6_" class="st18" d="M447.6,74.5c0-0.7,0.6-1.2,1.2-1.2s1.2,0.6,1.2,1.2c0,0.7-0.6,1.2-1.2,1.2
					S447.6,75.2,447.6,74.5z"/>
				<path id="point-0-31_6_" class="st19" d="M461.4,64.2c0-0.7,0.6-1.2,1.2-1.2s1.2,0.6,1.2,1.2c0,0.7-0.6,1.2-1.2,1.2
					S461.4,64.9,461.4,64.2z"/>
				<path id="point-0-32_6_" class="st19" d="M475.2,105c0-0.7,0.6-1.2,1.2-1.2s1.2,0.6,1.2,1.2c0,0.7-0.6,1.2-1.2,1.2
					S475.2,105.7,475.2,105z"/>
				<path id="point-0-33_6_" class="st18" d="M489,68.8c0-0.7,0.6-1.2,1.2-1.2s1.2,0.6,1.2,1.2c0,0.7-0.6,1.2-1.2,1.2
					S489,69.5,489,68.8z"/>
				<path id="point-0-34_6_" class="st19" d="M502.5,82.6c0-0.7,0.6-1.2,1.2-1.2s1.2,0.6,1.2,1.2s-0.6,1.2-1.2,1.2
					S502.5,83.3,502.5,82.6z"/>
				<path id="point-0-35_6_" class="st19" d="M516.6,45.8c0-0.7,0.6-1.2,1.2-1.2s1.2,0.6,1.2,1.2c0,0.6-0.6,1.2-1.2,1.2
					S516.6,46.5,516.6,45.8z"/>
				<path id="point-0-36_6_" class="st19" d="M530.4,65.7c0-0.7,0.6-1.2,1.2-1.2s1.2,0.6,1.2,1.2c0,0.7-0.6,1.2-1.2,1.2
					S530.4,66.4,530.4,65.7z"/>
				<path id="point-0-37_6_" class="st18" d="M544.1,55.1c0-0.7,0.6-1.2,1.2-1.2s1.2,0.6,1.2,1.2c0,0.6-0.6,1.2-1.2,1.2
					S544.1,55.8,544.1,55.1z"/>
				<path id="point-0-38_6_" class="st19" d="M557.9,76c0-0.7,0.6-1.2,1.2-1.2s1.2,0.6,1.2,1.2l0,0c0,0.7-0.6,1.2-1.2,1.2
					S557.9,76.7,557.9,76z"/>
				<path id="point-0-39_6_" class="st18" d="M571.7,76c0-0.7,0.6-1.2,1.2-1.2s1.2,0.6,1.2,1.2l0,0c0,0.7-0.6,1.2-1.2,1.2
					S571.7,76.7,571.7,76z"/>
				<path id="point-0-40_6_" class="st19" d="M585.5,50c0-0.7,0.6-1.2,1.2-1.2s1.2,0.6,1.2,1.2s-0.6,1.2-1.2,1.2
					S585.5,50.7,585.5,50z"/>
				<path id="point-0-41_6_" class="st19" d="M599.3,57.7c0-0.7,0.6-1.2,1.2-1.2s1.2,0.6,1.2,1.2l0,0c0,0.7-0.6,1.2-1.2,1.2
					S599.3,58.3,599.3,57.7z"/>
				<path id="point-0-42_6_" class="st19" d="M613.1,105.2c0-0.7,0.6-1.2,1.2-1.2s1.2,0.6,1.2,1.2c0,0.7-0.6,1.2-1.2,1.2
					S613.1,105.9,613.1,105.2z"/>
				<path id="point-0-43_6_" class="st19" d="M626.9,74.4c0-0.7,0.6-1.2,1.2-1.2s1.2,0.6,1.2,1.2c0,0.7-0.6,1.2-1.2,1.2
					S626.9,75.1,626.9,74.4z"/>
				<path id="point-0-44_3_" class="st19" d="M640.7,55.2c0-0.7,0.6-1.2,1.2-1.2s1.2,0.6,1.2,1.2c0,0.6-0.6,1.2-1.2,1.2
					S640.7,55.9,640.7,55.2z"/>
			</g>
		</g>
		<g>
			<g transform="translate(45, 10)">
			</g>
		</g>
	</g>
	<g>
		<g>
			<path class="st20" d="M686.4,106.8c-4.6-3.8-9.2-7.6-13.8-7.6s-9.2,35-13.8,35s-9.2-4.8-13.8-7.6c-4.6-2.8-9.2-9.1-13.8-9.1
				s-9.2,24.4-13.8,24.4s-9.2-0.5-13.8-1.5s-9.2-17-13.8-22.8s-9.2-8.4-13.8-12.2c-4.6-3.8-9.2-10.7-13.8-10.7s-9.2,1-13.8,3
				s-9.2,27.9-13.8,28.9s-9.2,1.5-13.8,1.5s-9.2-10.7-13.8-10.7s-9.2,10.7-13.8,10.7c-4.6,0-9.2-9.1-13.8-9.1s-9.2,22.8-13.8,22.8
				c-4.6,0-9.2-3.8-13.8-6.1c-4.6-2.3-9.2-2.8-13.8-7.6c-4.6-4.8-9.2-21.3-13.8-21.3c-4.6,0-9.2,18.3-13.8,18.3s-9.2-4.6-13.8-4.6
				c-4.6,0-9.2,8.9-13.8,12.2c-4.6,3.3-9.2,7.6-13.8,7.6c-4.6,0-9.2,0-13.8,0c-4.6,0-9.2-14.2-13.8-22.8
				c-4.6-8.6-9.2-28.9-13.8-28.9c-4.6,0-9.2,47.2-13.8,47.2c-4.6,0-9.2-4.6-13.8-10.7c-4.6-6.1-9.2-25.9-13.8-25.9
				s-9.2,2.3-13.8,6.1s-9.2,16.7-13.8,16.7c-4.6,0-9.2-4.6-13.8-4.6s-9.2,12.7-13.8,18.3s-9.2,15.2-13.8,15.2s-9.2-22.8-13.8-22.8
				s-9.2,15.2-13.8,15.2s-9.2-35-13.8-35s-9.2,22.8-13.8,22.8s-9.2-50.2-13.8-50.2s-9.2,62.4-13.8,62.4s-9.2-12.2-13.8-12.2
				c-4.6,0-9.2,3-13.8,3s-9.2-0.5-13.8-1.5c-4.6-1-10.3-54.3-13.8-53.3c0,0-0.8-1.5-4.6,3s-7.4,5.8-8.9,6.6
				c-1.5,0.8-4.5,13.9-8,19.7s-5,7.5-5.5,7.6s-5.4,1-13.5-1.4"/>
		</g>
		<g id="data-points_3_">
			<g transform="translate(45,10)">
				<path id="point-0-0_7_" class="st21" d="M33.6,69.4c0-0.7,0.6-1.2,1.2-1.2s1.2,0.6,1.2,1.2c0,0.7-0.6,1.2-1.2,1.2
					S33.6,70.1,33.6,69.4z"/>
				<path id="point-0-0_16_" class="st21" d="M20.1,78.7c0-0.7,0.6-1.2,1.2-1.2c0.7,0,1.2,0.6,1.2,1.2c0,0.7-0.6,1.2-1.2,1.2
					C20.6,79.9,20.1,79.3,20.1,78.7z"/>
				<path id="point-0-1_5_" class="st21" d="M47.4,122.7c0-0.7,0.6-1.2,1.2-1.2c0.7,0,1.2,0.6,1.2,1.2s-0.6,1.2-1.2,1.2
					C47.9,123.9,47.4,123.4,47.4,122.7z"/>
				<path id="point-0-2_5_" class="st21" d="M61.1,124.2c0-0.7,0.6-1.2,1.2-1.2s1.2,0.6,1.2,1.2s-0.6,1.2-1.2,1.2
					S61.1,124.9,61.1,124.2z"/>
				<path id="point-0-3_5_" class="st21" d="M74.9,121.3c0-0.7,0.6-1.2,1.2-1.2s1.2,0.6,1.2,1.2s-0.6,1.2-1.2,1.2
					S74.9,121.9,74.9,121.3z"/>
				<path id="point-0-4_16_" class="st21" d="M88.7,133.4c0-0.7,0.6-1.2,1.2-1.2c0.7,0,1.2,0.6,1.2,1.2l0,0c0,0.7-0.6,1.2-1.2,1.2
					S88.7,134,88.7,133.4z"/>
				<path id="point-0-5_4_" class="st21" d="M102.5,71c0-0.7,0.6-1.2,1.2-1.2c0.7,0,1.2,0.6,1.2,1.2c0,0.7-0.6,1.2-1.2,1.2
					C103.1,72.3,102.5,71.7,102.5,71z"/>
				<g>
					<g>
						<g>
							<g>
								<defs>
									<rect id="SVGID_1_" x="99.8" y="67.1" width="7.6" height="3.9"/>
								</defs>
								<clipPath id="SVGID_2_">
									<use xlink:href="#SVGID_1_"  style="overflow:visible;"/>
								</clipPath>
								<path id="point-0-6_7_" class="st22" d="M102.5,71c0-0.7,0.6-1.2,1.2-1.2s1.2,0.6,1.2,1.2s-0.6,1.2-1.2,1.2
									S102.5,71.7,102.5,71z"/>
							</g>
						</g>
					</g>
				</g>
				<path id="point-0-6_6_" class="st21" d="M116.3,121.1c0-0.7,0.6-1.2,1.2-1.2s1.2,0.6,1.2,1.2c0,0.7-0.6,1.2-1.2,1.2
					S116.3,121.8,116.3,121.1z"/>
				<path id="point-0-7_5_" class="st21" d="M130.1,98.4c0-0.7,0.6-1.2,1.2-1.2s1.2,0.6,1.2,1.2s-0.6,1.2-1.2,1.2
					S130.1,99.1,130.1,98.4z"/>
				<path id="point-0-8_5_" class="st21" d="M143.9,133.4c0-0.7,0.6-1.2,1.2-1.2s1.2,0.6,1.2,1.2l0,0c0,0.7-0.6,1.2-1.2,1.2
					S143.9,134,143.9,133.4z"/>
				<path id="point-0-9_5_" class="st21" d="M157.6,118.1c0-0.7,0.6-1.2,1.2-1.2s1.2,0.6,1.2,1.2c0,0.7-0.6,1.2-1.2,1.2
					S157.6,118.8,157.6,118.1z"/>
				<path id="point-0-10_5_" class="st21" d="M171.4,141c0-0.7,0.6-1.2,1.2-1.2s1.2,0.6,1.2,1.2c0,0.7-0.6,1.2-1.2,1.2
					S171.4,141.7,171.4,141z"/>
				<path id="point-0-11_5_" class="st21" d="M185.2,125.7c0-0.7,0.6-1.2,1.2-1.2c0.7,0,1.2,0.6,1.2,1.2l0,0c0,0.7-0.6,1.2-1.2,1.2
					S185.2,126.4,185.2,125.7z"/>
				<path id="point-0-12_5_" class="st21" d="M199,107.5c0-0.7,0.6-1.2,1.2-1.2c0.7,0,1.2,0.6,1.2,1.2c0,0.7-0.6,1.2-1.2,1.2
					S199,108.2,199,107.5z"/>
				<path id="point-0-13_5_" class="st21" d="M212.8,112.1c0-0.7,0.6-1.2,1.2-1.2c0.7,0,1.2,0.6,1.2,1.2c0,0.7-0.6,1.2-1.2,1.2
					C213.3,113.3,212.8,112.7,212.8,112.1z"/>
				<path id="point-0-14_5_" class="st21" d="M226.6,95.3c0-0.7,0.6-1.2,1.2-1.2c0.7,0,1.2,0.6,1.2,1.2l0,0c0,0.7-0.6,1.2-1.2,1.2
					C227.1,96.6,226.6,96,226.6,95.3z"/>
				<path id="point-0-15_5_" class="st21" d="M240.4,89.3c0-0.7,0.6-1.2,1.2-1.2c0.7,0,1.2,0.6,1.2,1.2c0,0.7-0.6,1.2-1.2,1.2
					C240.9,90.5,240.4,90,240.4,89.3z"/>
				<path id="point-0-16_5_" class="st21" d="M254.2,115.1c0-0.7,0.6-1.2,1.2-1.2s1.2,0.6,1.2,1.2s-0.6,1.2-1.2,1.2
					S254.2,115.8,254.2,115.1z"/>
				<path id="point-0-17_5_" class="st21" d="M267.9,125.7c0-0.7,0.6-1.2,1.2-1.2s1.2,0.6,1.2,1.2l0,0c0,0.7-0.6,1.2-1.2,1.2
					S267.9,126.4,267.9,125.7z"/>
				<path id="point-0-18_5_" class="st21" d="M281.7,78.6c0-0.7,0.6-1.2,1.2-1.2s1.2,0.6,1.2,1.2s-0.6,1.2-1.2,1.2
					S281.7,79.2,281.7,78.6z"/>
				<path id="point-0-19_5_" class="st21" d="M295.5,106.9c0-0.7,0.6-1.2,1.2-1.2s1.2,0.6,1.2,1.2c0,0.7-0.6,1.2-1.2,1.2
					S295.5,107.6,295.5,106.9z"/>
				<path id="point-0-20_5_" class="st21" d="M309.3,130.3c0-0.7,0.6-1.2,1.2-1.2s1.2,0.6,1.2,1.2s-0.6,1.2-1.2,1.2
					S309.3,131,309.3,130.3z"/>
				<path id="point-0-21_5_" class="st21" d="M323.1,130.3c0-0.7,0.6-1.2,1.2-1.2s1.2,0.6,1.2,1.2c0,0.7-0.6,1.2-1.2,1.2
					S323.1,131,323.1,130.3z"/>
				<path id="point-0-22_5_" class="st21" d="M336.9,122.7c0-0.7,0.6-1.2,1.2-1.2s1.2,0.6,1.2,1.2s-0.6,1.2-1.2,1.2
					S336.9,123.3,336.9,122.7L336.9,122.7z"/>
				<path id="point-0-23_5_" class="st21" d="M350.7,110.6c0-0.7,0.6-1.2,1.2-1.2s1.2,0.6,1.2,1.2s-0.6,1.2-1.2,1.2
					S350.7,111.2,350.7,110.6z"/>
				<path id="point-0-24_5_" class="st21" d="M364.5,115.1c0-0.7,0.6-1.2,1.2-1.2c0.7,0,1.2,0.6,1.2,1.2s-0.5,1.2-1.2,1.2
					S364.5,115.7,364.5,115.1z"/>
				<path id="point-0-25_5_" class="st21" d="M378.2,96.9c0-0.7,0.6-1.2,1.2-1.2s1.2,0.6,1.2,1.2c0,0.7-0.6,1.2-1.2,1.2
					S378.2,97.6,378.2,96.9z"/>
				<path id="point-0-26_5_" class="st21" d="M392,118.1c0-0.7,0.6-1.2,1.2-1.2c0.7,0,1.2,0.6,1.2,1.2c0,0.7-0.6,1.2-1.2,1.2
					C392.6,119.4,392,118.8,392,118.1z"/>
				<path id="point-0-27_5_" class="st21" d="M405.8,125.7c0-0.7,0.6-1.2,1.2-1.2s1.2,0.6,1.2,1.2l0,0c0,0.7-0.6,1.2-1.2,1.2
					S405.8,126.4,405.8,125.7z"/>
				<path id="point-0-28_5_" class="st21" d="M419.6,131.8c0-0.7,0.6-1.2,1.2-1.2c0.7,0,1.2,0.6,1.2,1.2c0,0.7-0.6,1.2-1.2,1.2
					C420.1,133.1,419.6,132.5,419.6,131.8z"/>
				<path id="point-0-29_5_" class="st21" d="M433.4,109c0-0.7,0.6-1.2,1.2-1.2s1.2,0.6,1.2,1.2s-0.6,1.2-1.2,1.2
					S433.4,109.7,433.4,109z"/>
				<path id="point-0-30_5_" class="st21" d="M447.2,118.1c0-0.7,0.6-1.2,1.2-1.2s1.2,0.6,1.2,1.2c0,0.7-0.6,1.2-1.2,1.2
					S447.2,118.8,447.2,118.1z"/>
				<path id="point-0-31_5_" class="st21" d="M461,107.5c0-0.7,0.6-1.2,1.2-1.2s1.2,0.6,1.2,1.2s-0.6,1.2-1.2,1.2
					S461,108.2,461,107.5z"/>
				<path id="point-0-32_5_" class="st21" d="M474.7,118.1c0-0.7,0.6-1.2,1.2-1.2c0.7,0,1.2,0.6,1.2,1.2s-0.6,1.2-1.2,1.2
					C475.3,119.4,474.7,118.8,474.7,118.1z"/>
				<path id="point-0-33_5_" class="st21" d="M488.5,116.6c0-0.7,0.6-1.2,1.2-1.2s1.2,0.6,1.2,1.2c0,0.7-0.6,1.2-1.2,1.2
					S488.5,117.3,488.5,116.6z"/>
				<path id="point-0-34_5_" class="st21" d="M502.3,87.7c0-0.7,0.6-1.2,1.2-1.2s1.2,0.6,1.2,1.2c0,0.7-0.6,1.2-1.2,1.2
					S502.3,88.4,502.3,87.7z"/>
				<path id="point-0-35_5_" class="st21" d="M516.1,84.6c0-0.7,0.6-1.2,1.2-1.2c0.7,0,1.2,0.6,1.2,1.2c0,0.7-0.6,1.2-1.2,1.2
					S516.1,85.3,516.1,84.6z"/>
				<path id="point-0-36_5_" class="st21" d="M529.9,95.1c0-0.7,0.6-1.2,1.2-1.2s1.2,0.6,1.2,1.2l0,0c0,0.7-0.6,1.2-1.2,1.2
					S529.9,95.8,529.9,95.1z"/>
				<path id="point-0-37_5_" class="st21" d="M543.7,107.5c0-0.7,0.6-1.2,1.2-1.2s1.2,0.6,1.2,1.2c0,0.7-0.6,1.2-1.2,1.2
					S543.7,108.2,543.7,107.5z"/>
				<path id="point-0-38_5_" class="st21" d="M557.5,130.3c0-0.7,0.6-1.2,1.2-1.2s1.2,0.6,1.2,1.2s-0.6,1.2-1.2,1.2
					S557.5,130.9,557.5,130.3z"/>
				<path id="point-0-39_5_" class="st21" d="M571.3,131.8c0-0.7,0.6-1.2,1.2-1.2c0.7,0,1.2,0.6,1.2,1.2s-0.6,1.2-1.2,1.2
					C571.8,133.1,571.3,132.5,571.3,131.8z"/>
				<path id="point-0-40_5_" class="st21" d="M585,107.5c0-0.7,0.6-1.2,1.2-1.2s1.2,0.6,1.2,1.2s-0.6,1.2-1.2,1.2
					S585,108.2,585,107.5z"/>
				<path id="point-0-41_5_" class="st21" d="M598.8,116.6c0-0.7,0.6-1.2,1.2-1.2s1.2,0.6,1.2,1.2c0,0.7-0.6,1.2-1.2,1.2
					S598.8,117.3,598.8,116.6z"/>
				<path id="point-0-42_5_" class="st21" d="M612.6,124.2c0-0.7,0.6-1.2,1.2-1.2s1.2,0.6,1.2,1.2s-0.6,1.2-1.2,1.2
					S612.6,124.9,612.6,124.2z"/>
				<path id="point-0-43_5_" class="st21" d="M626.4,89.2c0-0.7,0.6-1.2,1.2-1.2s1.2,0.6,1.2,1.2s-0.6,1.2-1.2,1.2
					S626.4,89.9,626.4,89.2z"/>
				<path id="point-0-44_2_" class="st21" d="M640.2,96.8c0-0.7,0.6-1.2,1.2-1.2s1.2,0.6,1.2,1.2c0,0.7-0.6,1.2-1.2,1.2
					S640.2,97.5,640.2,96.8z"/>
				<g>
					<path id="point-0-0_14_" class="st21" d="M-7.7,104.6c0-0.7,0.6-1.2,1.2-1.2s1.2,0.5,1.2,1.2s-0.6,1.2-1.2,1.2
						S-7.7,105.3-7.7,104.6z"/>
					<path class="st11" d="M-4.3,104.5L-4.3,104.5c0-1.2-1-2.2-2.2-2.2s-2.2,1-2.2,2.1l0,0L-4.3,104.5L-4.3,104.5z"/>
				</g>
				<g>
					<path id="point-0-0_15_" class="st21" d="M6.2,106c0-0.7,0.6-1.2,1.2-1.2s1.3,0.5,1.3,1.2s-0.6,1.2-1.2,1.2S6.2,106.7,6.2,106z
						"/>
					<path class="st11" d="M9.6,105.9L9.6,105.9c0-1.2-1-2.2-2.2-2.2s-2.2,1-2.2,2.1l0,0L9.6,105.9C9.6,105.8,9.6,105.9,9.6,105.9z"
						/>
				</g>
			</g>
		</g>
		<text transform="matrix(1 0 0 1 72.5051 94.8058)" class="st23 st24 st25">92</text>
		<text transform="matrix(1 0 0 1 62.9426 102.9933)" class="st23 st24 st25">86</text>
		<text transform="matrix(1 0 0 1 47.8592 125.0349)" class="st23 st24 st25">68</text>
		<text transform="matrix(1 0 0 1 33.8176 125.0349)" class="st23 st24 st25">69</text>
		<text transform="matrix(1 0 0 1 89.176 143.7318)" class="st23 st24 st25">57</text>
		<text transform="matrix(1 0 0 1 102.654 146.085)" class="st23 st24 st25">56</text>
		<text transform="matrix(1 0 0 1 116.7785 142.6456)" class="st23 st24 st25">58</text>
		<text transform="matrix(1 0 0 1 130.5075 155.2707)" class="st23 st24 st25">50</text>
		<text transform="matrix(1 0 0 1 144.4035 76.3977)" class="st23 st24 st25">91</text>
		<text transform="matrix(1 0 0 1 158.2365 142.6461)" class="st23 st24 st25">58</text>
		<text transform="matrix(1 0 0 1 172.2365 122.7321)" class="st23 st24 st25">73</text>
		<text transform="matrix(1 0 0 1 185.9035 156.7318)" class="st23 st24 st25">50</text>
		<text transform="matrix(1 0 0 1 199.9035 141.4155)" class="st23 st24 st25">60</text>
		<text transform="matrix(1 0 0 1 213.3869 162.3428)" class="st23 st24 st25">45</text>
		<text transform="matrix(1 0 0 1 227.1877 149.1476)" class="st23 st24 st25">55</text>
		<text transform="matrix(1 0 0 1 241.4689 129.1539)" class="st23 st24 st25">67</text>
		<text transform="matrix(1 0 0 1 254.9035 132.6731)" class="st23 st24 st25">64</text>
		<text transform="matrix(1 0 0 1 270.4514 115.8429)" class="st23 st24 st25">75</text>
		<text transform="matrix(1 0 0 1 281.9719 110.1245)" class="st23 st24 st25">79</text>
		<text transform="matrix(1 0 0 1 296.0402 138.3582)" class="st23 st24 st25">62</text>
		<text transform="matrix(1 0 0 1 310.0705 147.8056)" class="st23 st24 st25">55</text>
		<text transform="matrix(1 0 0 1 323.7961 109.3175)" class="st23 st24 st25">86</text>
		<text transform="matrix(1 0 0 1 337.4229 131.958)" class="st23 st24 st25">67</text>
		<text transform="matrix(1 0 0 1 351.9494 154.0319)" class="st23 st24 st25">52</text>
		<text transform="matrix(1 0 0 1 366.6154 154.0325)" class="st23 st24 st25">52</text>
		<text transform="matrix(1 0 0 1 379.0012 146.0847)" class="st23 st24 st25">57</text>
		<text transform="matrix(1 0 0 1 393.2072 131.9582)" class="st23 st24 st25">65</text>
		<text transform="matrix(1 0 0 1 412.2086 131.7304)" class="st23 st24 st25">62</text>
		<text transform="matrix(1 0 0 1 420.4758 120.7277)" class="st23 st24 st25">74</text>
		<text transform="matrix(1 0 0 1 433.1428 139.5867)" class="st23 st24 st25">60</text>
		<text transform="matrix(1 0 0 1 447.9758 147.8058)" class="st23 st24 st25">55</text>
		<text transform="matrix(1 0 0 1 461.9758 153.1398)" class="st23 st24 st25">51</text>
		<text transform="matrix(1 0 0 1 475.3087 133.7847)" class="st23 st24 st25">66</text>
		<text transform="matrix(1 0 0 1 489.9758 141.1222)" class="st23 st24 st25">60</text>
		<text transform="matrix(1 0 0 1 503.1427 131.9578)" class="st23 st24 st25">67</text>
		<text transform="matrix(1 0 0 1 516.6428 139.8934)" class="st23 st24 st25">60</text>
		<text transform="matrix(1 0 0 1 530.8127 139.5873)" class="st23 st24 st25">61</text>
		<text transform="matrix(1 0 0 1 544.3391 118.2917)" class="st23 st24 st25">80</text>
		<text transform="matrix(1 0 0 1 558.8088 108.3412)" class="st23 st24 st25">82</text>
		<text transform="matrix(1 0 0 1 572.216 116.7671)" class="st23 st24 st25">75</text>
		<text transform="matrix(1 0 0 1 585.7219 130.1394)" class="st23 st24 st25">67</text>
		<text transform="matrix(1 0 0 1 599.6428 152.8055)" class="st23 st24 st25">52</text>
		<text transform="matrix(1 0 0 1 613.9758 154.0324)" class="st23 st24 st25">51</text>
		<text transform="matrix(1 0 0 1 627.7121 131.0441)" class="st23 st24 st25">67</text>
		<text transform="matrix(1 0 0 1 640.9758 138.3289)" class="st23 st24 st25">61</text>
		<text transform="matrix(1 0 0 1 655.6428 147.1397)" class="st23 st24 st25">56</text>
		<text transform="matrix(1 0 0 1 668.8244 114.3139)" class="st23 st24 st25">79</text>
		<text transform="matrix(1 0 0 1 682.4758 118.4775)" class="st23 st24 st25">74</text>
	</g>
</g>
<g>
	<g>
		<text transform="matrix(1 0 0 1 12.25 361.0417)" class="st12 st3 st13">1900</text>
	</g>
	<g>
		<text transform="matrix(1 0 0 1 12.25 345.4167)" class="st12 st3 st13">1910</text>
	</g>
	<g>
		<text transform="matrix(1 0 0 1 12.25 331.4167)" class="st12 st3 st13">1920</text>
	</g>
	<g>
		<text transform="matrix(1 0 0 1 12.25 315.4167)" class="st12 st3 st13">1930</text>
	</g>
	<g>
		<text transform="matrix(1 0 0 1 12.25 299.6667)" class="st12 st3 st13">1940</text>
	</g>
	<g>
		<text transform="matrix(1 0 0 1 12.25 284.7917)" class="st12 st3 st13">1950</text>
	</g>
	<g>
		<text transform="matrix(1 0 0 1 12.25 269.5417)" class="st12 st3 st13">1960</text>
	</g>
	<g>
		<text transform="matrix(1 0 0 1 12.25 254.1667)" class="st12 st3 st13">1970</text>
	</g>
	<g>
		<text transform="matrix(1 0 0 1 12.25 238.6667)" class="st12 st3 st13">1980</text>
	</g>
	<g>
		<text transform="matrix(1 0 0 1 12.25 223.4167)" class="st12 st3 st13">1990</text>
	</g>
	<g>
		<text transform="matrix(1 0 0 1 12.25 208.0417)" class="st12 st3 st13">2000</text>
	</g>
	<g>
		<text transform="matrix(1 0 0 1 12.25 192.9167)" class="st12 st3 st13">2010</text>
	</g>
	<g>
		<text transform="matrix(1 0 0 1 12.25 179.5417)" class="st12 st3 st13">2020</text>
	</g>
</g>
<g>
	<g>
		<g>
			<text transform="matrix(1 0 0 1 705 361.0417)" class="st12 st3 st13">1900</text>
		</g>
		<g>
			<text transform="matrix(1 0 0 1 705 345.4167)" class="st12 st3 st13">1910</text>
		</g>
		<g>
			<text transform="matrix(1 0 0 1 705 331.4167)" class="st12 st3 st13">1920</text>
		</g>
		<g>
			<text transform="matrix(1 0 0 1 705 315.4167)" class="st12 st3 st13">1930</text>
		</g>
		<g>
			<text transform="matrix(1 0 0 1 705 299.6667)" class="st12 st3 st13">1940</text>
		</g>
		<g>
			<text transform="matrix(1 0 0 1 705 284.7917)" class="st12 st3 st13">1950</text>
		</g>
		<g>
			<text transform="matrix(1 0 0 1 705 269.5417)" class="st12 st3 st13">1960</text>
		</g>
		<g>
			<text transform="matrix(1 0 0 1 705 254.1667)" class="st12 st3 st13">1970</text>
		</g>
		<g>
			<text transform="matrix(1 0 0 1 705 238.6667)" class="st12 st3 st13">1980</text>
		</g>
		<g>
			<text transform="matrix(1 0 0 1 705 223.4167)" class="st12 st3 st13">1990</text>
		</g>
		<g>
			<text transform="matrix(1 0 0 1 705 208.0417)" class="st12 st3 st13">2000</text>
		</g>
		<g>
			<text transform="matrix(1 0 0 1 705 192.9167)" class="st12 st3 st13">2010</text>
		</g>
		<g>
			<text transform="matrix(1 0 0 1 705 179.5417)" class="st12 st3 st13">2020</text>
		</g>
	</g>
</g>
<g>
	<g>
		<path class="st26" d="M735.7,282.2c0,6.5-4.8,11.9-11,12.8"/>
		<g>
			<g>
				<path class="st27" d="M724.7,293.1c-1,0.1-1.8,1-1.7,2s1,1.8,2,1.7s1.8-1,1.7-2C726.6,293.8,725.7,293,724.7,293.1z"/>
				<path class="st28" d="M724.6,292.9c1.2-0.1,2.2,0.8,2.3,1.9c0.1,1.2-0.8,2.2-1.9,2.3c-1.2,0.1-2.2-0.8-2.3-1.9
					S723.5,293,724.6,292.9C725.8,292.8,723.5,293,724.6,292.9z M725,296.6c0.9-0.1,1.6-0.9,1.5-1.8s-0.9-1.6-1.8-1.5
					c-0.9,0.1-1.6,0.9-1.5,1.8C723.3,296.1,724.1,296.7,725,296.6C725.9,296.6,724.1,296.7,725,296.6z"/>
			</g>
		</g>
	</g>
</g>
<g>
	<g>
		<path class="st26" d="M735.7,322c0,6.5-4.8,11.9-11,12.8"/>
		<g>
			<g>
				<path class="st27" d="M724.7,333c-1,0.1-1.8,1-1.7,2s1,1.8,2,1.7c1-0.1,1.8-1,1.7-2C726.6,333.6,725.7,332.9,724.7,333z"/>
				<path class="st28" d="M724.6,332.7c1.2-0.1,2.2,0.8,2.3,1.9c0.1,1.2-0.8,2.2-1.9,2.3c-1.2,0.1-2.2-0.8-2.3-1.9
					S723.5,332.8,724.6,332.7C725.8,332.6,723.5,332.8,724.6,332.7z M725,336.5c0.9-0.1,1.6-0.9,1.5-1.8s-0.9-1.6-1.8-1.5
					c-0.9,0.1-1.6,0.9-1.5,1.8S724.1,336.5,725,336.5C725.9,336.4,724.1,336.5,725,336.5z"/>
			</g>
		</g>
	</g>
</g>
<text transform="matrix(1 0 0 1 734.5004 280.8331)" class="st28 st1 st29">WORLD WAR II</text>
<text transform="matrix(1 0 0 1 734.5004 320.9997)" class="st28 st1 st29">WORLD WAR I</text>
<text transform="matrix(1 0 0 1 243.1667 25.4181)" class="st3 st2">age when passed away</text>
<text transform="matrix(1 0 0 1 54.4167 25.8348)" class="st3 st2">current age</text>
<circle class="st12" cx="236.6" cy="23.3" r="3.4"/>
<text transform="matrix(1 0 0 1 126.4167 25.6681)" class="st3 st2">age when won the prize</text>
<circle class="st30" cx="119.9" cy="23.6" r="3.4"/>
<ellipse class="st11" cx="47.8" cy="23.2" rx="3.6" ry="3.5"/>
</svg>
